<?xml version="1.0" encoding="UTF-8" standalone="no"?>
<!DOCTYPE svg PUBLIC "-//W3C//DTD SVG 1.0//EN"
"http://www.w3.org/TR/2001/REC-SVG-20010904/DTD/svg10.dtd">
<!-- Created with Sodipodi ("http://www.sodipodi.com/") -->
<svg
   id="svg602"
   sodipodi:version="0.34"
   xmlns="http://www.w3.org/2000/svg"
   xmlns:sodipodi="http://sodipodi.sourceforge.net/DTD/sodipodi-0.dtd"
   xmlns:xlink="http://www.w3.org/1999/xlink"
   width="216.28pt"
   height="229.89pt"
   xml:space="preserve"
   sodipodi:docbase="/home/kou"
   sodipodi:docname="/home/kou/spilal"><defs
   id="defs604" /><sodipodi:namedview
   id="base" /><path
   sodipodi:type="spiral"
   style="font-size:12;fill:none;fill-rule:evenodd;stroke:#000000;stroke-width:1;"
   id="path605"
   sodipodi:cx="292.890442"
   sodipodi:cy="524.47821"
   sodipodi:expansion="1"
   sodipodi:revolution="3"
   sodipodi:radius="123.969444"
   sodipodi:argument="-17.643961"
   sodipodi:t0="0"
   d="M 292.8904 524.4782 C 293.6936 530.1448 286.9497 530.9658 283.2409 528.1677 C 275.4078 522.2579 278.8665 510.4274 285.5114 505.1792 C 297.2723 495.8904 314.2643 501.6152 321.8389 513.4097 C 332.8852 530.6099 324.6353 553.3408 307.6485 563.0762 C 285.1085 575.9942 256.478 565.1285 244.643 542.9258 C 229.8013 515.0825 243.3216 480.4861 270.7534 466.5813 C 303.8828 449.7884 344.4794 465.983 360.4369 498.6516 C 379.1971 537.058 360.3171 583.6745 322.4065 601.6741 C 278.7288 622.412 226.0797 600.8395 206.045 557.6838 C 183.3225 508.7382 207.5922 450.0479 255.9953 427.9833 C 310.2063 403.2712 374.9438 430.2413 399.0349 483.8936 C 425.7402 543.3682 396.0671 614.1575 337.1646 640.2721 "
   transform="translate(-173.6909,-381.4388)" /></svg>
