<?xml version="1.0" encoding="UTF-8" standalone="no"?>
<!DOCTYPE svg PUBLIC "-//W3C//DTD SVG 20010904//EN"
"http://www.w3.org/TR/2001/REC-SVG-20010904/DTD/svg10.dtd">
<!-- Created with Sodipodi ("http://www.sodipodi.com/") -->
<svg
   id="svg662"
   sodipodi:version="0.33"
   width="210mm"
   height="297mm"
   sodipodi:docbase="sample/"
   sodipodi:docname="sample/cozmixng_is_field.svg"
   xmlns="http://www.w3.org/2000/svg"
   xmlns:sodipodi="http://sodipodi.sourceforge.net/DTD/sodipodi-0.dtd"
   xmlns:xlink="http://www.w3.org/1999/xlink">
  <defs
     id="defs664" />
  <sodipodi:namedview
     id="base" />
  <path
     style="font-size:12.000;fill:none;fill-rule:evenodd;stroke:#000000;stroke-width:1.320000;"
     d="M 94.73051 578.6488 C 9.315541 533.6936 4.819984 475.2518 99.22599 443.7831 C 22.80199 340.3859 90.23514 281.9443 180.1456 299.9263 C 243.0830 227.9978 328.4980 205.5201 391.4354 304.4215 C 463.3639 236.9889 571.2566 250.4753 611.7163 335.8905 C 742.0867 349.3771 764.5643 479.7474 665.6626 529.1981 C 656.6715 650.5774 580.2476 664.0640 481.3460 623.6043 C 391.4354 727.0014 350.9756 713.5149 265.5607 632.5952 C 117.2082 713.5149 103.7216 583.1445 94.73051 578.6488 z "
     id="path668"
     sodipodi:nodetypes="ccccccccc" />
  <text
     style="fill:black;stroke:none;font-family:Free Chancery;font-style:italic;font-weight:normal;font-size:48.00000;text-anchor:start;writing-mode:lr;fill-opacity:1;stroke-opacity:1;stroke-width:1pt;stroke-linejoin:miter;stroke-linecap:butt;"
     x="176.473938"
     y="342.523651"
     id="text669"
     sodipodi:linespacing="100%">
    <tspan
       x="176.473938"
       y="342.523651"
       sodipodi:role="line"
       id="tspan642">COZMIXNG</tspan>
  </text>
  <g
     id="g682"
     transform="matrix(0.647059,0,0,0.620242,-2.672403,115.9072)">
    <path
       sodipodi:type="arc"
       style="fill-rule:evenodd;stroke:#000000;fill:#ffffff;fill-opacity:1.0000;stroke-opacity:1.0000;stroke-width:1pt;stroke-linejoin:miter;stroke-linecap:butt;"
       id="path674"
       d="M 163.4737 742.4432 A 23.83992 20.43423 0 1 "
       sodipodi:cx="139.6338"
       sodipodi:cy="742.4432"
       sodipodi:rx="23.83992"
       sodipodi:ry="20.43423"
       transform="translate(107.2797,-262.2393)" />
    <path
       style="font-size:12.000;fill:none;fill-rule:evenodd;stroke:#000000;stroke-width:0.879049;"
       d="M 246.9135 498.9353 L 246.9135 556.8323 "
       id="path675" />
    <path
       style="fill:none;fill-rule:evenodd;stroke:black;stroke-opacity:1;stroke-width:1pt;stroke-linejoin:miter;stroke-linecap:butt;fill-opacity:1;"
       d="M 212.8565 601.1064 L 246.9135 556.8323 "
       id="path676" />
    <path
       style="fill:none;fill-rule:evenodd;stroke:black;stroke-opacity:1;stroke-width:1pt;stroke-linejoin:miter;stroke-linecap:butt;fill-opacity:1;"
       d="M 246.9135 556.8323 L 287.7820 601.1064 "
       id="path677" />
    <path
       style="fill:none;fill-rule:evenodd;stroke:black;stroke-opacity:1;stroke-width:1pt;stroke-linejoin:miter;stroke-linecap:butt;fill-opacity:1;"
       d="M 202.6394 510.8552 L 289.4848 510.8552 "
       id="path681" />
  </g>
  <g
     id="g688"
     transform="matrix(0.647059,0,0,0.620242,424.4030,106.9163)">
    <path
       sodipodi:type="arc"
       style="fill-rule:evenodd;stroke:#000000;fill:#ffffff;fill-opacity:1.0000;stroke-opacity:1.0000;stroke-width:1pt;stroke-linejoin:miter;stroke-linecap:butt;"
       id="path689"
       d="M 163.4737 742.4432 A 23.83992 20.43423 0 1 "
       sodipodi:cx="139.6338"
       sodipodi:cy="742.4432"
       sodipodi:rx="23.83992"
       sodipodi:ry="20.43423"
       transform="translate(107.2797,-262.2393)" />
    <path
       style="font-size:12.000;fill:none;fill-rule:evenodd;stroke:#000000;stroke-width:0.879049;"
       d="M 246.9135 498.9353 L 246.9135 556.8323 "
       id="path690" />
    <path
       style="fill:none;fill-rule:evenodd;stroke:black;stroke-opacity:1;stroke-width:1pt;stroke-linejoin:miter;stroke-linecap:butt;fill-opacity:1;"
       d="M 212.8565 601.1064 L 246.9135 556.8323 "
       id="path691" />
    <path
       style="fill:none;fill-rule:evenodd;stroke:black;stroke-opacity:1;stroke-width:1pt;stroke-linejoin:miter;stroke-linecap:butt;fill-opacity:1;"
       d="M 246.9135 556.8323 L 287.7820 601.1064 "
       id="path692" />
    <path
       style="fill:none;fill-rule:evenodd;stroke:black;stroke-opacity:1;stroke-width:1pt;stroke-linejoin:miter;stroke-linecap:butt;fill-opacity:1;"
       d="M 202.6394 510.8552 L 289.4848 510.8552 "
       id="path693" />
  </g>
  <g
     id="g694"
     transform="matrix(0.647059,0,0,0.620242,33.29178,223.8001)">
    <path
       sodipodi:type="arc"
       style="fill-rule:evenodd;stroke:#000000;fill:#ffffff;fill-opacity:1.0000;stroke-opacity:1.0000;stroke-width:1pt;stroke-linejoin:miter;stroke-linecap:butt;"
       id="path695"
       d="M 163.4737 742.4432 A 23.83992 20.43423 0 1 "
       sodipodi:cx="139.6338"
       sodipodi:cy="742.4432"
       sodipodi:rx="23.83992"
       sodipodi:ry="20.43423"
       transform="translate(107.2797,-262.2393)" />
    <path
       style="font-size:12.000;fill:none;fill-rule:evenodd;stroke:#000000;stroke-width:0.879049;"
       d="M 246.9135 498.9353 L 246.9135 556.8323 "
       id="path696" />
    <path
       style="fill:none;fill-rule:evenodd;stroke:black;stroke-opacity:1;stroke-width:1pt;stroke-linejoin:miter;stroke-linecap:butt;fill-opacity:1;"
       d="M 212.8565 601.1064 L 246.9135 556.8323 "
       id="path697" />
    <path
       style="fill:none;fill-rule:evenodd;stroke:black;stroke-opacity:1;stroke-width:1pt;stroke-linejoin:miter;stroke-linecap:butt;fill-opacity:1;"
       d="M 246.9135 556.8323 L 287.7820 601.1064 "
       id="path698" />
    <path
       style="fill:none;fill-rule:evenodd;stroke:black;stroke-opacity:1;stroke-width:1pt;stroke-linejoin:miter;stroke-linecap:butt;fill-opacity:1;"
       d="M 202.6394 510.8552 L 289.4848 510.8552 "
       id="path699" />
  </g>
  <g
     id="g700"
     transform="matrix(0.647059,0,0,0.620242,343.4833,43.97893)">
    <path
       sodipodi:type="arc"
       style="fill-rule:evenodd;stroke:#000000;fill:#ffffff;fill-opacity:1.0000;stroke-opacity:1.0000;stroke-width:1pt;stroke-linejoin:miter;stroke-linecap:butt;"
       id="path701"
       d="M 163.4737 742.4432 A 23.83992 20.43423 0 1 "
       sodipodi:cx="139.6338"
       sodipodi:cy="742.4432"
       sodipodi:rx="23.83992"
       sodipodi:ry="20.43423"
       transform="translate(107.2797,-262.2393)" />
    <path
       style="font-size:12.000;fill:none;fill-rule:evenodd;stroke:#000000;stroke-width:0.879049;"
       d="M 246.9135 498.9353 L 246.9135 556.8323 "
       id="path702" />
    <path
       style="fill:none;fill-rule:evenodd;stroke:black;stroke-opacity:1;stroke-width:1pt;stroke-linejoin:miter;stroke-linecap:butt;fill-opacity:1;"
       d="M 212.8565 601.1064 L 246.9135 556.8323 "
       id="path703" />
    <path
       style="fill:none;fill-rule:evenodd;stroke:black;stroke-opacity:1;stroke-width:1pt;stroke-linejoin:miter;stroke-linecap:butt;fill-opacity:1;"
       d="M 246.9135 556.8323 L 287.7820 601.1064 "
       id="path704" />
    <path
       style="fill:none;fill-rule:evenodd;stroke:black;stroke-opacity:1;stroke-width:1pt;stroke-linejoin:miter;stroke-linecap:butt;fill-opacity:1;"
       d="M 202.6394 510.8552 L 289.4848 510.8552 "
       id="path705" />
  </g>
  <g
     id="g706"
     transform="matrix(0.647059,0,0,0.620242,206.3696,300.2243)">
    <path
       sodipodi:type="arc"
       style="fill-rule:evenodd;stroke:#000000;fill:#ffffff;fill-opacity:1.0000;stroke-opacity:1.0000;stroke-width:1pt;stroke-linejoin:miter;stroke-linecap:butt;"
       id="path707"
       d="M 163.4737 742.4432 A 23.83992 20.43423 0 1 "
       sodipodi:cx="139.6338"
       sodipodi:cy="742.4432"
       sodipodi:rx="23.83992"
       sodipodi:ry="20.43423"
       transform="translate(107.2797,-262.2393)" />
    <path
       style="font-size:12.000;fill:none;fill-rule:evenodd;stroke:#000000;stroke-width:0.879049;"
       d="M 246.9135 498.9353 L 246.9135 556.8323 "
       id="path708" />
    <path
       style="fill:none;fill-rule:evenodd;stroke:black;stroke-opacity:1;stroke-width:1pt;stroke-linejoin:miter;stroke-linecap:butt;fill-opacity:1;"
       d="M 212.8565 601.1064 L 246.9135 556.8323 "
       id="path709" />
    <path
       style="fill:none;fill-rule:evenodd;stroke:black;stroke-opacity:1;stroke-width:1pt;stroke-linejoin:miter;stroke-linecap:butt;fill-opacity:1;"
       d="M 246.9135 556.8323 L 287.7820 601.1064 "
       id="path710" />
    <path
       style="fill:none;fill-rule:evenodd;stroke:black;stroke-opacity:1;stroke-width:1pt;stroke-linejoin:miter;stroke-linecap:butt;fill-opacity:1;"
       d="M 202.6394 510.8552 L 289.4848 510.8552 "
       id="path711" />
  </g>
  <g
     id="g712"
     transform="matrix(0.647059,0,0,0.620242,278.2982,241.7823)">
    <path
       sodipodi:type="arc"
       style="fill-rule:evenodd;stroke:#000000;fill:#ffffff;fill-opacity:1.0000;stroke-opacity:1.0000;stroke-width:1pt;stroke-linejoin:miter;stroke-linecap:butt;"
       id="path713"
       d="M 163.4737 742.4432 A 23.83992 20.43423 0 1 "
       sodipodi:cx="139.6338"
       sodipodi:cy="742.4432"
       sodipodi:rx="23.83992"
       sodipodi:ry="20.43423"
       transform="translate(107.2797,-262.2393)" />
    <path
       style="font-size:12.000;fill:none;fill-rule:evenodd;stroke:#000000;stroke-width:0.879049;"
       d="M 246.9135 498.9353 L 246.9135 556.8323 "
       id="path714" />
    <path
       style="fill:none;fill-rule:evenodd;stroke:black;stroke-opacity:1;stroke-width:1pt;stroke-linejoin:miter;stroke-linecap:butt;fill-opacity:1;"
       d="M 212.8565 601.1064 L 246.9135 556.8323 "
       id="path715" />
    <path
       style="fill:none;fill-rule:evenodd;stroke:black;stroke-opacity:1;stroke-width:1pt;stroke-linejoin:miter;stroke-linecap:butt;fill-opacity:1;"
       d="M 246.9135 556.8323 L 287.7820 601.1064 "
       id="path716" />
    <path
       style="fill:none;fill-rule:evenodd;stroke:black;stroke-opacity:1;stroke-width:1pt;stroke-linejoin:miter;stroke-linecap:butt;fill-opacity:1;"
       d="M 202.6394 510.8552 L 289.4848 510.8552 "
       id="path717" />
  </g>
  <g
     id="g718"
     transform="matrix(0.647059,0,0,0.620242,208.6175,185.5883)">
    <path
       sodipodi:type="arc"
       style="fill-rule:evenodd;stroke:#000000;fill:#ffffff;fill-opacity:1.0000;stroke-opacity:1.0000;stroke-width:1pt;stroke-linejoin:miter;stroke-linecap:butt;"
       id="path719"
       d="M 163.4737 742.4432 A 23.83992 20.43423 0 1 "
       sodipodi:cx="139.6338"
       sodipodi:cy="742.4432"
       sodipodi:rx="23.83992"
       sodipodi:ry="20.43423"
       transform="translate(107.2797,-262.2393)" />
    <path
       style="font-size:12.000;fill:none;fill-rule:evenodd;stroke:#000000;stroke-width:0.879049;"
       d="M 246.9135 498.9353 L 246.9135 556.8323 "
       id="path720" />
    <path
       style="fill:none;fill-rule:evenodd;stroke:black;stroke-opacity:1;stroke-width:1pt;stroke-linejoin:miter;stroke-linecap:butt;fill-opacity:1;"
       d="M 212.8565 601.1064 L 246.9135 556.8323 "
       id="path721" />
    <path
       style="fill:none;fill-rule:evenodd;stroke:black;stroke-opacity:1;stroke-width:1pt;stroke-linejoin:miter;stroke-linecap:butt;fill-opacity:1;"
       d="M 246.9135 556.8323 L 287.7820 601.1064 "
       id="path722" />
    <path
       style="fill:none;fill-rule:evenodd;stroke:black;stroke-opacity:1;stroke-width:1pt;stroke-linejoin:miter;stroke-linecap:butt;fill-opacity:1;"
       d="M 202.6394 510.8552 L 289.4848 510.8552 "
       id="path723" />
  </g>
  <polygon
     sodipodi:type="star"
     style="font-size:12.000;fill:#808080;fill-rule:evenodd;stroke-width:1;"
     id="polygon741"
     sodipodi:sides="5"
     sodipodi:cx="171.988052"
     sodipodi:cy="504.043884"
     sodipodi:r1="18.1015472"
     sodipodi:r2="9.05077362"
     sodipodi:arg1="0.85196632"
     sodipodi:arg2="1.48028481"
     points="183.9080,517.6667 172.8061,513.0576 162.7155,519.5901 163.6683,507.6073 154.3373,500.0292 166.0281,497.2325 170.3519,486.0164 176.6243,496.2708 188.6276,496.9170 180.8134,506.0512 183.9080,517.6667 "
     transform="matrix(1.320000,0,0,1.320000,-87.33829,-149.6266)" />
  <path
     sodipodi:type="spiral"
     style="font-size:12.000;fill:none;fill-rule:evenodd;stroke:#000000;stroke-width:1;"
     id="path742"
     sodipodi:cx="354.1932"
     sodipodi:cy="527.8838"
     sodipodi:expansion="1"
     sodipodi:revolution="3.000000"
     sodipodi:radius="30.12656"
     sodipodi:argument="-18.10414"
     sodipodi:t0="0"
     d="M 354.1932 527.8838 C 354.9795 529.0309 353.5999 529.9376 352.4903 529.7285 C 350.1469 529.2870 349.6232 526.3380 350.5037 524.4781 C 352.0620 521.1863 356.3795 520.5989 359.3018 522.3495 C 363.5633 524.9025 364.2201 530.7422 361.5722 534.6952 C 358.0585 539.9406 350.6521 540.6646 345.6789 537.1075 C 339.4423 532.6469 338.6524 523.6548 343.1246 517.6666 C 348.5258 510.4347 359.1129 509.5796 366.1132 514.9705 C 374.3430 521.3083 375.2631 533.4960 368.9512 541.5067 C 361.6791 550.7360 347.8873 551.7209 338.8675 544.4866 C 328.6375 536.2817 327.5878 520.8834 335.7456 510.8552 C 344.8822 499.6238 361.8887 498.5095 372.9246 507.5915 C 385.1581 517.6591 386.3371 536.2750 376.3303 548.3181 "
     transform="matrix(1.320000,0,0,1.320000,-96.32938,-140.6356)" />
  <rect
     style="font-size:12.000;fill:#808080;fill-rule:evenodd;stroke-width:1;"
     id="rect743"
     width="40.45973"
     height="53.94639"
     x="519.5581"
     y="392.0843"
     rx="13.2000013"
     ry="13.2000013" />
  <path
     style="font-size:12.000;fill:none;fill-rule:evenodd;stroke:#000000;stroke-width:1.320000;"
     d="M 265.5607 410.0663 L 198.1279 468.5083 "
     id="path744" />
  <path
     style="font-size:12.000;fill:#6b79d9;fill-opacity:0.976200;fill-rule:evenodd;stroke:#6e7cde;stroke-width:1.320000;"
     d="M 285.6785 460.1365 L 316.6101 543.8377 "
     id="path625" />
  <path
     style="font-size:12.000;fill:#6b79d9;fill-opacity:0.976200;fill-rule:evenodd;stroke:#6e7cde;stroke-width:1.320000;"
     d="M 294.1513 533.2065 L 316.4988 544.0229 L 324.1596 520.4874 L 294.1513 533.2065 z "
     id="path624"
     sodipodi:nodetypes="cccc" />
  <g
     id="g648"
     transform="matrix(1.320000,0,0,1.320000,-121.0548,-149.6266)">
    <path
       style="font-size:12.000;fill:#e7cb34;fill-rule:evenodd;stroke:#e7cb34;stroke-width:1.138384;"
       d="M 351.2730 418.0535 L 438.8591 416.6224 "
       id="path628"
       transform="translate(0,-3.051758e-5)" />
    <path
       style="font-size:12.000;fill:#e7cb34;fill-rule:evenodd;stroke:#e7cb34;"
       d="M 426.0339 430.0575 L 439.3095 416.7336 L 424.3540 405.4233 L 426.0339 430.0575 z "
       id="path627"
       sodipodi:nodetypes="cccc" />
  </g>
  <g
     id="g658"
     style="stroke:#00ca00;stroke-opacity:1.0000;fill:#00ca00;fill-opacity:1.0000;"
     transform="matrix(1.320000,0,0,1.320000,-121.0548,-149.6266)">
    <path
       style="font-size:12.000;fill:#00ca00;fill-rule:evenodd;stroke:#00ca00;stroke-opacity:1.0000;fill-opacity:1.0000;"
       d="M 292.8905 424.0098 L 241.8050 468.2840 "
       id="path619"
       transform="translate(0,-3.051758e-5)" />
    <path
       style="font-size:12.000;fill:#00ca00;fill-rule:evenodd;stroke:#00ca00;stroke-opacity:1.0000;fill-opacity:1.0000;"
       d="M 243.5346 449.5258 L 241.8317 468.2572 L 260.5631 467.4058 L 243.5346 449.5258 z "
       id="path745"
       sodipodi:nodetypes="cccc" />
  </g>
  <path
     sodipodi:type="arc"
     style="fill-rule:evenodd;stroke:none;fill:gray;fill-opacity:1;stroke-opacity:1;stroke-width:1pt;stroke-linejoin:miter;stroke-linecap:butt;"
     id="path626"
     d="M 322.5000 331.7372 A 14.37500 14.37500 0 1 "
     sodipodi:cx="308.1250"
     sodipodi:cy="331.7372"
     sodipodi:rx="14.37500"
     sodipodi:ry="14.37500"
     transform="matrix(1.320000,0,0,1.320000,-121.0548,-149.6266)" />
  <path
     style="fill:#808080;fill-rule:evenodd;stroke:none;stroke-opacity:1;stroke-width:1pt;stroke-linejoin:miter;stroke-linecap:butt;fill-opacity:1.0000;"
     d="M 228.7453 285.7915 L 215.5453 312.1915 L 258.4453 310.5415 L 228.7453 285.7915 z "
     id="path629" />
  <g
     id="g630"
     transform="matrix(0.647059,0,0,0.620242,-83.85823,237.0001)">
    <path
       sodipodi:type="arc"
       style="fill-rule:evenodd;stroke:#000000;fill:#ffffff;fill-opacity:1.0000;stroke-opacity:1.0000;stroke-width:1pt;stroke-linejoin:miter;stroke-linecap:butt;"
       id="path631"
       d="M 163.4737 742.4432 A 23.83992 20.43423 0 1 "
       sodipodi:cx="139.6338"
       sodipodi:cy="742.4432"
       sodipodi:rx="23.83992"
       sodipodi:ry="20.43423"
       transform="translate(107.2797,-262.2393)" />
    <path
       style="font-size:12.000;fill:none;fill-rule:evenodd;stroke:#000000;stroke-width:0.879049;"
       d="M 246.9135 498.9353 L 246.9135 556.8323 "
       id="path632" />
    <path
       style="fill:none;fill-rule:evenodd;stroke:black;stroke-opacity:1;stroke-width:1pt;stroke-linejoin:miter;stroke-linecap:butt;fill-opacity:1;"
       d="M 212.8565 601.1064 L 246.9135 556.8323 "
       id="path633" />
    <path
       style="fill:none;fill-rule:evenodd;stroke:black;stroke-opacity:1;stroke-width:1pt;stroke-linejoin:miter;stroke-linecap:butt;fill-opacity:1;"
       d="M 246.9135 556.8323 L 287.7820 601.1064 "
       id="path634" />
    <path
       style="fill:none;fill-rule:evenodd;stroke:black;stroke-opacity:1;stroke-width:1pt;stroke-linejoin:miter;stroke-linecap:butt;fill-opacity:1;"
       d="M 202.6394 510.8552 L 289.4848 510.8552 "
       id="path635" />
  </g>
  <g
     id="g636"
     transform="matrix(0.647059,0,0,0.620242,-93.75824,128.1002)">
    <path
       sodipodi:type="arc"
       style="fill-rule:evenodd;stroke:#000000;fill:#ffffff;fill-opacity:1.0000;stroke-opacity:1.0000;stroke-width:1pt;stroke-linejoin:miter;stroke-linecap:butt;"
       id="path637"
       d="M 163.4737 742.4432 A 23.83992 20.43423 0 1 "
       sodipodi:cx="139.6338"
       sodipodi:cy="742.4432"
       sodipodi:rx="23.83992"
       sodipodi:ry="20.43423"
       transform="translate(107.2797,-262.2393)" />
    <path
       style="font-size:12.000;fill:none;fill-rule:evenodd;stroke:#000000;stroke-width:0.879049;"
       d="M 246.9135 498.9353 L 246.9135 556.8323 "
       id="path638" />
    <path
       style="fill:none;fill-rule:evenodd;stroke:black;stroke-opacity:1;stroke-width:1pt;stroke-linejoin:miter;stroke-linecap:butt;fill-opacity:1;"
       d="M 212.8565 601.1064 L 246.9135 556.8323 "
       id="path639" />
    <path
       style="fill:none;fill-rule:evenodd;stroke:black;stroke-opacity:1;stroke-width:1pt;stroke-linejoin:miter;stroke-linecap:butt;fill-opacity:1;"
       d="M 246.9135 556.8323 L 287.7820 601.1064 "
       id="path640" />
    <path
       style="fill:none;fill-rule:evenodd;stroke:black;stroke-opacity:1;stroke-width:1pt;stroke-linejoin:miter;stroke-linecap:butt;fill-opacity:1;"
       d="M 202.6394 510.8552 L 289.4848 510.8552 "
       id="path641" />
  </g>
  <g
     id="g645">
    <path
       sodipodi:type="arc"
       style="font-size:12.000;fill:#000000;fill-rule:evenodd;stroke:#000000;fill-opacity:1.0000;"
       id="path725"
       d="M 163.4737 742.4432 A 23.83992 20.43423 0 1 "
       sodipodi:cx="139.6338"
       sodipodi:cy="742.4432"
       sodipodi:rx="23.83992"
       sodipodi:ry="20.43423"
       transform="matrix(0.647059,0,0,0.620242,192.6188,-89.45158)" />
    <path
       style="font-size:12.000;fill:none;fill-rule:evenodd;stroke:#000000;stroke-width:0.879049;"
       d="M 246.9135 498.9353 L 246.9135 556.8323 "
       id="path726"
       transform="matrix(0.647059,0,0,0.620242,123.2025,73.20016)" />
    <path
       style="font-size:12.000;fill:none;fill-rule:evenodd;stroke:#000000;"
       d="M 212.8565 601.1064 L 246.9135 556.8323 "
       id="path727"
       transform="matrix(0.647059,0,0,0.620242,123.2025,73.20016)" />
    <path
       style="font-size:12.000;fill:none;fill-rule:evenodd;stroke:#000000;"
       d="M 246.9135 556.8323 L 287.7820 601.1064 "
       id="path728"
       transform="matrix(0.647059,0,0,0.620242,123.2025,73.20016)" />
    <path
       style="font-size:12.000;fill:none;fill-rule:evenodd;stroke:#000000;"
       d="M 202.6394 510.8552 L 289.4848 510.8552 "
       id="path729"
       transform="matrix(0.647059,0,0,0.620242,123.2025,73.20016)" />
  </g>
</svg>
