<?xml version="1.0" encoding="UTF-8" standalone="no"?>
<!-- Created with Inkscape (http://www.inkscape.org/) -->

<svg
   xmlns:dc="http://purl.org/dc/elements/1.1/"
   xmlns:cc="http://creativecommons.org/ns#"
   xmlns:rdf="http://www.w3.org/1999/02/22-rdf-syntax-ns#"
   xmlns:svg="http://www.w3.org/2000/svg"
   xmlns="http://www.w3.org/2000/svg"
   xmlns:sodipodi="http://sodipodi.sourceforge.net/DTD/sodipodi-0.dtd"
   xmlns:inkscape="http://www.inkscape.org/namespaces/inkscape"
   width="63.485172"
   height="60.069668"
   id="svg2"
   version="1.1"
   inkscape:version="0.48.3.1 r9886"
   sodipodi:docname="kinotan.svg">
  <defs
     id="defs4" />
  <sodipodi:namedview
     id="base"
     pagecolor="#639943"
     bordercolor="#666666"
     borderopacity="1.0"
     inkscape:pageopacity="1"
     inkscape:pageshadow="2"
     inkscape:zoom="3.959798"
     inkscape:cx="62.109359"
     inkscape:cy="22.484309"
     inkscape:document-units="px"
     inkscape:current-layer="layer1"
     showgrid="false"
     fit-margin-top="0"
     fit-margin-left="0"
     fit-margin-right="0"
     fit-margin-bottom="0"
     inkscape:window-width="1920"
     inkscape:window-height="1005"
     inkscape:window-x="0"
     inkscape:window-y="25"
     inkscape:window-maximized="1" />
  <metadata
     id="metadata7">
    <rdf:RDF>
      <cc:Work
         rdf:about="">
        <dc:format>image/svg+xml</dc:format>
        <dc:type
           rdf:resource="http://purl.org/dc/dcmitype/StillImage" />
        <dc:title />
      </cc:Work>
    </rdf:RDF>
  </metadata>
  <g
     inkscape:label="レイヤー 1"
     inkscape:groupmode="layer"
     id="layer1"
     transform="translate(-222.75741,-439.35116)">
    <g
       id="g3951">
      <path
         sodipodi:nodetypes="ssssssssssssss"
         inkscape:connector-curvature="0"
         id="path3091"
         d="m 253.8125,440.03125 c -9.01394,0 -15.97361,4.84386 -21.3125,11.03125 -5.3389,6.18741 -9.0625,13.6975 -9.0625,22.03125 0,8.33374 3.5986,14.36004 8.9375,18.9375 5.33889,4.57746 11.95213,6.44835 18.56696,6.70089 4.39455,0.16777 11.43579,-2.15617 14.54911,-3.5491 4.32857,-1.93663 10.14004,-4.63618 13.16518,-7.43304 5.90717,-5.46135 6.90625,-10.60376 6.90625,-18.9375 0,-16.66749 -13.72211,-28.78125 -31.75,-28.78125 z m -5.40625,24.3125 c 10.33305,0 20.21875,6.93804 20.21875,16.59375 0,9.65573 -7.3857,17.59375 -17.71875,17.59375 -10.33305,0 -17.9375,-7.06302 -17.9375,-16.71875 0,-9.65571 5.10445,-17.46875 15.4375,-17.46875 z"
         style="color:#000000;fill:#ffffff;fill-opacity:1;stroke:#ffffff;stroke-width:1.3601712;stroke-linecap:butt;stroke-linejoin:round;stroke-miterlimit:4;stroke-opacity:1;stroke-dashoffset:0;marker:none;visibility:visible;display:inline;overflow:visible;enable-background:accumulate" />
      <path
         transform="translate(-1.9459084,0.06313453)"
         d="m 243.95184,477.01718 c 0,1.22039 -0.98933,2.20971 -2.20971,2.20971 -1.22039,0 -2.20971,-0.98932 -2.20971,-2.20971 0,-1.22039 0.98932,-2.20971 2.20971,-2.20971 1.22038,0 2.20971,0.98932 2.20971,2.20971 z"
         sodipodi:ry="2.2097087"
         sodipodi:rx="2.2097087"
         sodipodi:cy="477.01718"
         sodipodi:cx="241.74213"
         id="path3891"
         style="color:#000000;fill:none;stroke:#ffffff;stroke-width:2;stroke-linecap:butt;stroke-linejoin:round;stroke-miterlimit:4;stroke-opacity:1;stroke-dasharray:none;stroke-dashoffset:0;marker:none;visibility:visible;display:inline;overflow:visible;enable-background:accumulate"
         sodipodi:type="arc" />
      <path
         sodipodi:type="arc"
         style="color:#000000;fill:none;stroke:#ffffff;stroke-width:2;stroke-linecap:butt;stroke-linejoin:round;stroke-miterlimit:4;stroke-opacity:1;stroke-dasharray:none;stroke-dashoffset:0;marker:none;visibility:visible;display:inline;overflow:visible;enable-background:accumulate"
         id="path3893"
         sodipodi:cx="241.74213"
         sodipodi:cy="477.01718"
         sodipodi:rx="2.2097087"
         sodipodi:ry="2.2097087"
         d="m 243.95184,477.01718 c 0,1.22039 -0.98933,2.20971 -2.20971,2.20971 -1.22039,0 -2.20971,-0.98932 -2.20971,-2.20971 0,-1.22039 0.98932,-2.20971 2.20971,-2.20971 1.22038,0 2.20971,0.98932 2.20971,2.20971 z"
         transform="translate(19.743162,0.90368932)" />
      <path
         inkscape:connector-curvature="0"
         id="path3895"
         d="m 245.81431,481.78383 0,1.26269"
         style="fill:none;stroke:#ffffff;stroke-width:1px;stroke-linecap:butt;stroke-linejoin:miter;stroke-opacity:1" />
      <path
         inkscape:connector-curvature="0"
         id="path3897"
         d="m 247.83461,481.84696 -0.0316,1.07329"
         style="fill:none;stroke:#ffffff;stroke-width:1px;stroke-linecap:butt;stroke-linejoin:miter;stroke-opacity:1" />
      <path
         inkscape:connector-curvature="0"
         id="path3903"
         d="m 240.92138,484.08824 -0.0631,2.33598 3.09359,2.65165 3.283,2.84105 3.78807,-0.1894 4.92449,-5.42957 -3.4724,2.52538 -7.76555,-0.12627 -3.21986,-2.39911 z"
         style="fill:none;stroke:#ffffff;stroke-width:1px;stroke-linecap:butt;stroke-linejoin:miter;stroke-opacity:1" />
    </g>
  </g>
</svg>
